<?xml version="1.0" encoding="UTF-8" standalone="no"?>
<svg xmlns="http://www.w3.org/2000/svg" xmlns:xlink="http://www.w3.org/1999/xlink" xmlns:serif="http://www.serif.com/" width="100%" height="100%" viewBox="0 0 205 55" version="1.1" xml:space="preserve" style="fill-rule:evenodd;clip-rule:evenodd;stroke-linejoin:round;stroke-miterlimit:2;"> <g transform="matrix(0.0314897,0,0,0.0193525,9.16571,10)"> <g id="LOGO"> <g id="Logomark"> <g transform="matrix(1,0,0,1,300,0)"> <path d="M1770.5,177.038C1777.52,134.864 1772.08,89.771 1755.76,55.064C1739.44,20.357 1714.12,0 1687.27,-0L1200.03,0L900,1800L1434.05,1800C1472.98,1800 1507.09,1757.55 1517.28,1696.41C1566.6,1400.47 1708.55,548.736 1770.5,177.038Z" style="fill:rgb(210,85,34);"/> </g> <g transform="matrix(1,0,0,1,300,0)"> <path d="M1200.03,0L599.992,0L299.996,1800L900,1800L1200.03,0Z" style="fill:rgb(22,75,129);"/> </g> <g transform="matrix(1,0,0,1,300,0)"> <path d="M599.992,0L65.961,0C27.029,0 -7.075,42.447 -17.265,103.587C-66.589,399.523 -208.548,1251.26 -270.499,1622.96C-277.528,1665.13 -272.081,1710.23 -255.765,1744.93C-239.449,1779.64 -214.128,1800 -187.273,1800L299.996,1800L599.992,0Z" style="fill:rgb(28,131,84);"/> </g> </g> </g> </g> <g transform="matrix(0.455199,0,0,0.455199,21.2774,20.0273)"> <g> <g transform="matrix(1,0,0,1,151.87,40.97)"> <text x="0px" y="0px" style="font-family:'Cabin-Bold', 'Cabin', sans-serif;font-weight:700;font-size:70.672px;fill:rgb(219,219,219);">T</text> </g> <g transform="matrix(1,0,0,1,190.103,40.97)"> <text x="0px" y="0px" style="font-family:'Cabin-Bold', 'Cabin', sans-serif;font-weight:700;font-size:70.672px;fill:rgb(219,219,219);">OSCD</text> </g> </g> </g> </svg>